<?xml version="1.0" encoding="UTF-8"?>
<svg xmlns="http://www.w3.org/2000/svg" xmlns:xlink="http://www.w3.org/1999/xlink" width="20pt" height="20pt" viewBox="0 0 20 20" version="1.1">
<g id="surface1">
<path style=" stroke:none;fill-rule:nonzero;fill:rgb(0%,0%,0%);fill-opacity:1;" d="M 9.65625 0.015625 C 8.972656 0.0351562 8.230469 0.140625 7.554688 0.3125 C 4.277344 1.140625 1.648438 3.5625 0.542969 6.765625 C 0.0351562 8.234375 -0.117188 9.890625 0.113281 11.453125 C 0.398438 13.410156 1.234375 15.191406 2.578125 16.699219 C 2.753906 16.894531 3.234375 17.371094 3.4375 17.542969 C 4.769531 18.695312 6.332031 19.464844 8.035156 19.804688 C 8.171875 19.832031 8.320312 19.859375 8.363281 19.863281 L 8.441406 19.875 L 8.441406 12.894531 L 5.890625 12.894531 L 5.890625 9.992188 L 8.4375 9.992188 L 8.445312 8.625 C 8.449219 7.140625 8.449219 7.164062 8.539062 6.730469 C 8.742188 5.722656 9.265625 4.933594 10.054688 4.449219 C 10.113281 4.414062 10.246094 4.34375 10.347656 4.296875 C 10.8125 4.070312 11.308594 3.949219 11.941406 3.910156 C 12.449219 3.878906 13.445312 3.945312 14.238281 4.0625 L 14.457031 4.097656 L 14.460938 5.328125 L 14.464844 6.5625 L 13.699219 6.570312 C 12.894531 6.574219 12.8125 6.582031 12.574219 6.652344 C 12.183594 6.765625 11.890625 7.003906 11.730469 7.34375 C 11.667969 7.476562 11.613281 7.664062 11.59375 7.816406 C 11.582031 7.886719 11.578125 8.308594 11.578125 8.960938 L 11.578125 9.992188 L 14.347656 9.992188 L 14.339844 10.035156 C 14.328125 10.097656 13.90625 12.855469 13.90625 12.875 C 13.90625 12.890625 13.664062 12.894531 12.742188 12.894531 L 11.578125 12.894531 L 11.578125 16.382812 C 11.578125 19.777344 11.578125 19.871094 11.605469 19.871094 C 11.65625 19.871094 12.171875 19.765625 12.40625 19.707031 C 14.773438 19.121094 16.824219 17.703125 18.234375 15.679688 C 19.089844 14.449219 19.679688 12.949219 19.890625 11.460938 C 20.046875 10.363281 20.03125 9.292969 19.839844 8.226562 C 19.144531 4.363281 16.234375 1.253906 12.417969 0.300781 C 11.527344 0.078125 10.65625 -0.0117188 9.65625 0.015625 Z M 9.65625 0.015625 "/>
</g>
</svg>
