<?xml version="1.0" encoding="UTF-8"?>
<svg xmlns="http://www.w3.org/2000/svg" xmlns:xlink="http://www.w3.org/1999/xlink" width="20pt" height="20pt" viewBox="0 0 20 20" version="1.1">
<g id="surface1">
<path style=" stroke:none;fill-rule:nonzero;fill:rgb(0%,0%,0%);fill-opacity:1;" d="M 4.378906 0.183594 C 3.089844 0.292969 2.109375 0.726562 1.371094 1.511719 C 0.609375 2.316406 0.25 3.25 0.183594 4.609375 C 0.15625 5.144531 0.152344 14.015625 0.175781 14.105469 C 0.195312 14.160156 0.207031 14.152344 0.417969 13.992188 C 0.710938 13.761719 1.226562 13.425781 1.550781 13.246094 C 1.832031 13.089844 2.445312 12.8125 2.617188 12.761719 L 2.722656 12.730469 L 2.722656 10.1875 C 2.722656 7.039062 2.753906 6.480469 2.941406 5.742188 C 3.128906 5.015625 3.445312 4.457031 3.945312 3.949219 C 4.453125 3.441406 5.039062 3.117188 5.785156 2.933594 C 6.480469 2.757812 7.066406 2.730469 9.972656 2.730469 C 12.910156 2.730469 13.496094 2.757812 14.21875 2.933594 C 14.949219 3.113281 15.539062 3.4375 16.050781 3.945312 C 16.550781 4.449219 16.871094 5.015625 17.058594 5.742188 C 17.246094 6.464844 17.273438 7.058594 17.273438 10.011719 C 17.273438 12.378906 17.253906 13.089844 17.175781 13.664062 C 17.019531 14.757812 16.589844 15.605469 15.871094 16.230469 C 15.183594 16.824219 14.320312 17.152344 13.195312 17.230469 C 13.023438 17.242188 12.941406 17.253906 12.953125 17.277344 C 12.957031 17.292969 13.011719 17.410156 13.070312 17.542969 C 13.320312 18.117188 13.550781 18.871094 13.675781 19.503906 L 13.734375 19.824219 L 14.738281 19.808594 C 15.746094 19.796875 15.933594 19.78125 16.417969 19.683594 C 17.539062 19.460938 18.496094 18.820312 19.097656 17.890625 C 19.464844 17.316406 19.675781 16.738281 19.785156 15.976562 C 19.828125 15.65625 19.832031 15.34375 19.832031 9.972656 C 19.832031 4.636719 19.828125 4.292969 19.785156 3.996094 C 19.691406 3.40625 19.582031 3.019531 19.363281 2.566406 C 19.148438 2.117188 18.941406 1.828125 18.570312 1.457031 C 17.980469 0.871094 17.394531 0.539062 16.589844 0.339844 C 15.859375 0.164062 16.226562 0.175781 10.144531 0.167969 C 7.121094 0.164062 4.527344 0.171875 4.378906 0.183594 Z M 4.378906 0.183594 "/>
<path style=" stroke:none;fill-rule:nonzero;fill:rgb(0%,0%,0%);fill-opacity:1;" d="M 7.558594 4.0625 C 6.597656 4.097656 6.167969 4.160156 5.683594 4.347656 C 5.136719 4.558594 4.636719 5.035156 4.398438 5.566406 C 4.214844 5.972656 4.128906 6.40625 4.085938 7.125 C 4.0625 7.535156 4.042969 12.335938 4.066406 12.355469 C 4.074219 12.363281 4.207031 12.347656 4.363281 12.324219 C 4.566406 12.292969 4.855469 12.28125 5.363281 12.28125 C 6.097656 12.277344 6.292969 12.292969 6.847656 12.398438 C 6.996094 12.425781 7.121094 12.445312 7.128906 12.441406 C 7.132812 12.433594 7.085938 12.359375 7.023438 12.273438 C 6.667969 11.804688 6.417969 11.234375 6.308594 10.644531 C 6.25 10.316406 6.253906 9.679688 6.3125 9.347656 C 6.558594 7.992188 7.535156 6.871094 8.839844 6.445312 C 9.230469 6.316406 9.558594 6.269531 10 6.269531 C 10.441406 6.269531 10.769531 6.316406 11.160156 6.445312 C 12.476562 6.875 13.421875 7.964844 13.6875 9.363281 C 13.753906 9.714844 13.75 10.320312 13.675781 10.699219 C 13.480469 11.679688 12.910156 12.554688 12.105469 13.089844 C 11.550781 13.460938 11.078125 13.636719 10.398438 13.722656 L 10.054688 13.761719 L 10.359375 13.996094 C 10.753906 14.296875 11.558594 15.101562 11.855469 15.496094 C 11.980469 15.660156 12.113281 15.828125 12.144531 15.867188 L 12.199219 15.941406 L 12.757812 15.910156 C 13.386719 15.878906 13.804688 15.816406 14.144531 15.703125 C 14.554688 15.566406 14.769531 15.433594 15.074219 15.144531 C 15.558594 14.683594 15.796875 14.132812 15.886719 13.28125 C 15.933594 12.808594 15.96875 10.660156 15.953125 9.089844 C 15.9375 7.535156 15.910156 6.832031 15.855469 6.480469 C 15.660156 5.160156 14.902344 4.371094 13.621094 4.15625 C 13.484375 4.132812 13.183594 4.101562 12.957031 4.089844 C 12.410156 4.050781 8.402344 4.035156 7.558594 4.0625 Z M 14.230469 5.308594 C 14.394531 5.382812 14.597656 5.582031 14.679688 5.753906 C 14.738281 5.878906 14.75 5.929688 14.75 6.121094 C 14.746094 6.386719 14.691406 6.527344 14.519531 6.714844 C 14.097656 7.167969 13.371094 7.050781 13.09375 6.488281 C 12.933594 6.167969 12.992188 5.800781 13.246094 5.523438 C 13.480469 5.257812 13.910156 5.167969 14.230469 5.308594 Z M 14.230469 5.308594 "/>
<path style=" stroke:none;fill-rule:nonzero;fill:rgb(0%,0%,0%);fill-opacity:1;" d="M 9.699219 7.605469 C 8.871094 7.714844 8.167969 8.230469 7.8125 8.992188 C 7.65625 9.324219 7.597656 9.609375 7.597656 10 C 7.597656 10.671875 7.820312 11.210938 8.289062 11.691406 C 9.453125 12.875 11.429688 12.550781 12.160156 11.054688 C 12.34375 10.6875 12.40625 10.410156 12.402344 9.988281 C 12.402344 9.710938 12.390625 9.601562 12.335938 9.398438 C 12.152344 8.703125 11.707031 8.15625 11.058594 7.839844 C 10.613281 7.617188 10.175781 7.542969 9.699219 7.605469 Z M 9.699219 7.605469 "/>
</g>
</svg>
